<svg xmlns="http://www.w3.org/2000/svg" viewBox="0 0 200 200">
  <path d="M55 40 L65 35 L80 45 L70 55 Z" fill="#212529" stroke="#343a40" stroke-width="2"/>
  <path d="M145 40 L135 35 L120 45 L130 55 Z" fill="#212529" stroke="#343a40" stroke-width="2"/>
  <path d="M65 35 L135 35 L130 55 L70 55 Z" fill="#2d2d2d" stroke="#343a40" stroke-width="2"/>
  <rect x="65" y="40" width="70" height="12" rx="4" fill="#1a1a1a"/>
  <path d="M70 55 L130 55 L135 160 L65 160 Z" fill="#212529" stroke="#343a40" stroke-width="2"/>
  <line x1="75" y1="55" x2="75" y2="160" stroke="#343a40" stroke-width="1"/>
  <line x1="125" y1="55" x2="125" y2="160" stroke="#343a40" stroke-width="1"/>
  <rect x="80" y="75" width="18" height="50" rx="3" fill="#1a1a1a"/>
  <rect x="102" y="75" width="18" height="50" rx="3" fill="#1a1a1a"/>
  <rect x="85" y="140" width="30" height="4" rx="2" fill="#ffd43b"/>
</svg>
